# xmcd
#
# Track frame offsets:
#	150
#	16152
#	31822
#	45752
#	64012
#	80022
#	97292
#	117287
#	138500
#	156252
#	174772
#	193757
#	212932
#	234595
#	253800
#	273042
#	294535
#	315117
#
# Disc length: 4606 seconds
#
# Revision: 1
# Processed by: cddbd v1.5.1PL0 Copyright (c) Steve Scherf et al.
# Submitted via: CDex 1.50Beta5
#
DISCID=f211fc12
DTITLE=五木ひろし - 五木ひろし全曲集 20世紀メモリアル-ヒットパレード- Disc 1
DYEAR=2000
DGENRE=World
TTITLE0=よこはまたそがれ
TTITLE1=あなたの灯
TTITLE2=夜空
TTITLE3=愛の始発
TTITLE4=倖せさがして
TTITLE5=居酒屋
TTITLE6=細雪
TTITLE7=長良川艶歌
TTITLE8=デュオ しのび逢い
TTITLE9=そして…めぐり逢い
TTITLE10=それは…黄昏
TTITLE11=暖簾
TTITLE12=終着駅
TTITLE13=べにばな
TTITLE14=汽笛
TTITLE15=酒ひとり
TTITLE16=再り会い
TTITLE17=山河
EXTD=
EXTT0=
EXTT1=
EXTT2=
EXTT3=
EXTT4=
EXTT5=
EXTT6=
EXTT7=
EXTT8=
EXTT9=
EXTT10=
EXTT11=
EXTT12=
EXTT13=
EXTT14=
EXTT15=
EXTT16=
EXTT17=
PLAYORDER=
